<svg xmlns="http://www.w3.org/2000/svg" viewBox="0 0 64 64">
  <rect width="64" height="64" rx="14" fill="#0b0c18"/>
  <!-- flame outer -->
  <path d="M32 6 C32 6, 40 14, 40 22 C44 18, 44 13, 42 9 C47 13, 50 21, 47 29 C50 26, 52 21, 50 18 C54 22, 55 31, 51 38 C48 44, 41 48, 32 48 C23 48, 16 44, 13 38 C9 31, 10 22, 14 18 C12 21, 14 26, 17 29 C14 21, 17 13, 22 9 C20 13, 20 18, 24 22 C24 14, 32 6, 32 6Z" fill="#f59e0b"/>
  <!-- flame inner -->
  <path d="M32 20 C32 20, 36 25, 36 30 C38 28, 38 25, 37 22 C40 25, 41 30, 39 35 C41 32, 42 29, 41 26 C43 29, 43 35, 40 39 C38 42, 35 43, 32 43 C29 43, 26 42, 24 39 C21 35, 21 29, 23 26 C22 29, 23 32, 25 35 C23 30, 24 25, 27 22 C26 25, 26 28, 28 30 C28 25, 32 20, 32 20Z" fill="#fcd34d"/>
  <!-- inner core -->
  <ellipse cx="32" cy="36" rx="5" ry="6" fill="#fef3c7" opacity="0.8"/>
</svg>
